REM DIRINDEX 1\2,1\3
REM DIRNAME folder01,folder02,folder03
TITLE ""
FILE "2000 phrasesTrack14.mp3" MP3
  TRACK 01 AUDIO
    TITLE "2:cjc143_0633"
    INDEX 01 00:00:00
  TRACK 02 AUDIO
    TITLE "0:"
    INDEX 01 00:00:56
  TRACK 03 AUDIO
    TITLE "2:cjc143_0634"
    INDEX 01 00:01:26
  TRACK 04 AUDIO
    TITLE "0:"
    INDEX 01 00:03:25
  TRACK 05 AUDIO
    TITLE "2:cjc143_0635"
    INDEX 01 00:03:29
  TRACK 06 AUDIO
    TITLE "0:"
    INDEX 01 00:05:03
  TRACK 07 AUDIO
    TITLE "2:cjc143_0636"
    INDEX 01 00:05:10
  TRACK 08 AUDIO
    TITLE "0:"
    INDEX 01 00:07:05
  TRACK 09 AUDIO
    TITLE "2:cjc143_0637"
    INDEX 01 00:07:11
  TRACK 10 AUDIO
    TITLE "0:"
    INDEX 01 00:08:34
  TRACK 11 AUDIO
    TITLE "2:cjc143_0638"
    INDEX 01 00:08:40
  TRACK 12 AUDIO
    TITLE "0:"
    INDEX 01 00:10:04
  TRACK 13 AUDIO
    TITLE "2:cjc143_0639"
    INDEX 01 00:10:10
  TRACK 14 AUDIO
    TITLE "0:"
    INDEX 01 00:11:27
  TRACK 15 AUDIO
    TITLE "2:cjc143_0640"
    INDEX 01 00:11:40
  TRACK 16 AUDIO
    TITLE "0:"
    INDEX 01 00:12:61
  TRACK 17 AUDIO
    TITLE "2:cjc143_0641"
    INDEX 01 00:12:65
  TRACK 18 AUDIO
    TITLE "0:"
    INDEX 01 00:14:23
  TRACK 19 AUDIO
    TITLE "2:cjc143_0642"
    INDEX 01 00:14:31
  TRACK 20 AUDIO
    TITLE "0:"
    INDEX 01 00:15:66
  TRACK 21 AUDIO
    TITLE "2:cjc143_0643"
    INDEX 01 00:15:74
  TRACK 22 AUDIO
    TITLE "0:"
    INDEX 01 00:17:57
  TRACK 23 AUDIO
    TITLE "2:cjc143_0644"
    INDEX 01 00:17:65
  TRACK 24 AUDIO
    TITLE "0:"
    INDEX 01 00:19:48
  TRACK 25 AUDIO
    TITLE "2:cjc143_0645"
    INDEX 01 00:19:54
  TRACK 26 AUDIO
    TITLE "0:"
    INDEX 01 00:21:29
  TRACK 27 AUDIO
    TITLE "2:cjc143_0646"
    INDEX 01 00:21:35
  TRACK 28 AUDIO
    TITLE "0:"
    INDEX 01 00:23:04
  TRACK 29 AUDIO
    TITLE "2:cjc143_0647"
    INDEX 01 00:23:12
  TRACK 30 AUDIO
    TITLE "0:"
    INDEX 01 00:25:13
  TRACK 31 AUDIO
    TITLE "2:cjc143_0648"
    INDEX 01 00:25:56
  TRACK 32 AUDIO
    TITLE "0:"
    INDEX 01 00:27:20
  TRACK 33 AUDIO
    TITLE "2:cjc143_0649"
    INDEX 01 00:27:26
  TRACK 34 AUDIO
    TITLE "0:"
    INDEX 01 00:28:60
  TRACK 35 AUDIO
    TITLE "2:cjc143_0650"
    INDEX 01 00:29:03
  TRACK 36 AUDIO
    TITLE "0:"
    INDEX 01 00:30:30
  TRACK 37 AUDIO
    TITLE "2:cjc143_0651"
    INDEX 01 00:30:48
  TRACK 38 AUDIO
    TITLE "0:"
    INDEX 01 00:31:63
  TRACK 39 AUDIO
    TITLE "2:cjc143_0652"
    INDEX 01 00:32:01
  TRACK 40 AUDIO
    TITLE "0:"
    INDEX 01 00:33:64
  TRACK 41 AUDIO
    TITLE "2:cjc143_0653"
    INDEX 01 00:34:34
  TRACK 42 AUDIO
    TITLE "0:"
    INDEX 01 00:35:51
  TRACK 43 AUDIO
    TITLE "2:cjc143_0654"
    INDEX 01 00:36:05
  TRACK 44 AUDIO
    TITLE "0:"
    INDEX 01 00:37:20
  TRACK 45 AUDIO
    TITLE "2:cjc143_0655"
    INDEX 01 00:37:24
  TRACK 46 AUDIO
    TITLE "0:"
    INDEX 01 00:38:49
  TRACK 47 AUDIO
    TITLE "2:cjc143_0656"
    INDEX 01 00:38:55
  TRACK 48 AUDIO
    TITLE "0:"
    INDEX 01 00:40:38
  TRACK 49 AUDIO
    TITLE "2:cjc143_0657"
    INDEX 01 00:40:46
  TRACK 50 AUDIO
    TITLE "0:"
    INDEX 01 00:42:37
  TRACK 51 AUDIO
    TITLE "2:cjc143_0658"
    INDEX 01 00:42:43
  TRACK 52 AUDIO
    TITLE "0:"
    INDEX 01 00:44:05
  TRACK 53 AUDIO
    TITLE "2:cjc143_0659"
    INDEX 01 00:44:20
  TRACK 54 AUDIO
    TITLE "0:"
    INDEX 01 00:45:55
  TRACK 55 AUDIO
    TITLE "2:cjc143_0660"
    INDEX 01 00:45:61
  TRACK 56 AUDIO
    TITLE "0:"
    INDEX 01 00:47:15
  TRACK 57 AUDIO
    TITLE "2:cjc143_0661"
    INDEX 01 00:47:21
  TRACK 58 AUDIO
    TITLE "0:"
    INDEX 01 00:48:53
  TRACK 59 AUDIO
    TITLE "2:cjc143_0662"
    INDEX 01 00:49:20
  TRACK 60 AUDIO
    TITLE "0:"
    INDEX 01 00:51:54
  TRACK 61 AUDIO
    TITLE "2:cjc143_0663"
    INDEX 01 00:51:65
  TRACK 62 AUDIO
    TITLE "0:"
    INDEX 01 00:54:56
  TRACK 63 AUDIO
    TITLE "2:cjc143_0664"
    INDEX 01 00:54:66
  TRACK 64 AUDIO
    TITLE "0:"
    INDEX 01 00:56:08
  TRACK 65 AUDIO
    TITLE "2:cjc143_0665"
    INDEX 01 00:56:16
  TRACK 66 AUDIO
    TITLE "0:"
    INDEX 01 00:57:33
  TRACK 67 AUDIO
    TITLE "2:cjc143_0666"
    INDEX 01 00:57:37
  TRACK 68 AUDIO
    TITLE "0:"
    INDEX 01 00:58:71
  TRACK 69 AUDIO
    TITLE "2:cjc143_0667"
    INDEX 01 00:59:38
  TRACK 70 AUDIO
    TITLE "0:"
    INDEX 01 01:01:44
  TRACK 71 AUDIO
    TITLE "2:cjc143_0668"
    INDEX 01 01:01:54
  TRACK 72 AUDIO
    TITLE "0:"
    INDEX 01 01:03:47
  TRACK 73 AUDIO
    TITLE "2:cjc143_0669"
    INDEX 01 01:03:53
  TRACK 74 AUDIO
    TITLE "0:"
    INDEX 01 01:05:44
  TRACK 75 AUDIO
    TITLE "2:cjc143_0670"
    INDEX 01 01:05:50
  TRACK 76 AUDIO
    TITLE "0:"
    INDEX 01 01:06:73
  TRACK 77 AUDIO
    TITLE "2:cjc143_0671"
    INDEX 01 01:07:43
  TRACK 78 AUDIO
    TITLE "0:"
    INDEX 01 01:08:64
  TRACK 79 AUDIO
    TITLE "2:cjc143_0672"
    INDEX 01 01:08:68
  TRACK 80 AUDIO
    TITLE "0:"
    INDEX 01 01:11:00
  TRACK 81 AUDIO
    TITLE "2:cjc143_0673"
    INDEX 01 01:11:13
  TRACK 82 AUDIO
    TITLE "0:"
    INDEX 01 01:12:46
  TRACK 83 AUDIO
    TITLE "2:cjc143_0674"
    INDEX 01 01:12:54
  TRACK 84 AUDIO
    TITLE "0:"
    INDEX 01 01:14:02
  TRACK 85 AUDIO
    TITLE "2:cjc143_0675"
    INDEX 01 01:14:12
  TRACK 86 AUDIO
    TITLE "0:"
    INDEX 01 01:15:35
  TRACK 87 AUDIO
    TITLE "2:cjc143_0676"
    INDEX 01 01:15:40
  TRACK 88 AUDIO
    TITLE "0:"
    INDEX 01 01:16:65
